<svg xmlns="http://www.w3.org/2000/svg" width="20" height="20" fill="none" xmlns:v="https://vecta.io/nano"><path d="M12.5 11.667l-.822.137c-.02-.119-.013-.242.019-.358s.089-.225.168-.317.176-.166.285-.217.229-.077.35-.077v.833zm-9.167 0v.833c-.221 0-.433-.088-.589-.244s-.244-.368-.244-.589h.833zM5 2.5h9.467v1.667H5V2.5zm10.467 10H12.5v-1.667h2.967V12.5zm-2.144-.97l.671 4.029-1.643.274-.672-4.03 1.644-.273zm-.973 5.97h-.178v-1.667h.178V17.5zm-2.952-1.484l-2.096-3.145 1.387-.925 2.097 3.145-1.387.925zM6.608 12.5H3.333v-1.667h3.275V12.5zM2.5 11.667V5h1.667v6.667H2.5zM16.918 4.51l1 5-1.633.327-1-5 1.633-.327zm-9.617 8.361c-.076-.114-.179-.208-.3-.272s-.256-.098-.393-.098v-1.667a2.5 2.5 0 0 1 2.08 1.113l-1.387.924zm6.692 2.688c.04.239.027.483-.037.716s-.179.45-.335.635a1.67 1.67 0 0 1-1.271.59v-1.667l1.643-.274zm1.473-4.726a.83.83 0 0 0 .357-.08c.111-.053.21-.13.288-.225s.134-.207.164-.326.034-.244.009-.365l1.633-.327a2.5 2.5 0 0 1-.518 2.075 2.5 2.5 0 0 1-1.933.915l-.001-1.667zm-1-8.333a2.5 2.5 0 0 1 2.452 2.01l-1.633.327c-.038-.189-.14-.359-.289-.481s-.336-.189-.529-.189V2.5zm-2.295 15c-.549 0-1.089-.136-1.573-.394s-.897-.633-1.201-1.09l1.387-.925c.152.228.358.416.6.545s.512.197.787.197V17.5zM5 4.167c-.221 0-.433.088-.589.244s-.244.368-.244.589H2.5A2.5 2.5 0 0 1 5 2.5v1.667z" fill="#FFD700"/><path d="M6.667 11.666V3.333" stroke="#FFD700" stroke-width="2"/></svg>