<svg xmlns="http://www.w3.org/2000/svg" width="20" height="20" fill="none" xmlns:v="https://vecta.io/nano"><path d="M7.5 18.334c-.5 0-.833-.333-.833-.833V15H3.333a1.67 1.67 0 0 1-1.667-1.667v-10a1.67 1.67 0 0 1 1.667-1.667h13.333a1.67 1.67 0 0 1 1.667 1.667v10A1.67 1.67 0 0 1 16.667 15h-5.083L8.5 18.084c-.167.167-.333.25-.583.25H7.5zm.833-5v2.583l2.583-2.583h5.75v-10H3.333v10h5zM13.583 5l-1.167 2.5h1.75v3.333h-3.333v-3.5L11.917 5h1.667zm-5 0L7.417 7.5h1.75v3.333H5.833v-3.5L6.917 5h1.667z" fill="#FFD700"/></svg>