<svg xmlns="http://www.w3.org/2000/svg" width="20" height="20" fill="none" xmlns:v="https://vecta.io/nano"><path d="M12.033 8.333l-.822-.137c-.02.119-.013.242.019.358s.089.225.168.317.176.166.285.217.229.077.35.077v-.833zm-9.167 0V7.5c-.221 0-.433.088-.589.244s-.244.368-.244.589h.833zM4.533 17.5H14v-1.667H4.533V17.5zM15 7.5h-2.967v1.667H15V7.5zm-2.144.97l.671-4.029-1.643-.274-.672 4.03 1.644.273zm-.973-5.97h-.178v1.667h.178V2.5zM8.931 3.984L6.835 7.129l1.387.925 2.097-3.145-1.387-.925zM6.142 7.5H2.867v1.667h3.275V7.5zm-4.108.833V15H3.7V8.333H2.033zm14.418 7.157l1-5-1.633-.327-1 5 1.633.327zM6.835 7.129c-.076.114-.179.208-.3.272s-.256.099-.393.098v1.667a2.5 2.5 0 0 0 2.08-1.113l-1.387-.924zm6.692-2.688c.04-.239.027-.483-.037-.717s-.179-.45-.335-.635-.351-.333-.571-.435-.459-.155-.701-.155v1.667l1.643.274zM15 9.167c.123 0 .245.027.357.08s.21.13.288.225.134.207.164.326.034.244.009.365l1.633.327a2.5 2.5 0 0 0-.518-2.075 2.5 2.5 0 0 0-1.933-.915L15 9.167zM14 17.5a2.5 2.5 0 0 0 2.452-2.01l-1.633-.327c-.038.189-.14.359-.289.482s-.336.189-.529.188V17.5zm-2.295-15c-.549 0-1.089.135-1.573.394s-.897.633-1.201 1.09l1.387.925c.152-.228.358-.416.6-.545s.512-.197.787-.197V2.5zM4.533 15.833c-.221 0-.433-.088-.589-.244S3.7 15.221 3.7 15H2.033a2.5 2.5 0 0 0 2.5 2.5v-1.667z" fill="#FFD700"/><path d="M6.2 8.334v8.333" stroke="#FFD700" stroke-width="2"/></svg>