<svg width="26" height="26" viewBox="0 0 26 26" fill="none" xmlns="http://www.w3.org/2000/svg">
<path d="M5.00025 19.0003C4.86822 19.0033 4.73696 18.9793 4.61453 18.9298C4.4921 18.8802 4.38107 18.8062 4.28825 18.7123C4.1943 18.6195 4.1203 18.5084 4.07078 18.386C4.02126 18.2636 3.99726 18.1323 4.00025 18.0003C4.00025 17.7176 4.09625 17.4803 4.28825 17.2883C4.38107 17.1943 4.4921 17.1203 4.61453 17.0708C4.73696 17.0213 4.86822 16.9973 5.00025 17.0003H16.0002C16.2836 17.0003 16.5212 17.0963 16.7132 17.2883C16.807 17.3812 16.8808 17.4923 16.9302 17.6147C16.9795 17.7371 17.0034 17.8683 17.0002 18.0003C17.0002 18.283 16.9046 18.5203 16.7132 18.7123C16.6203 18.8064 16.5091 18.8804 16.3865 18.93C16.2639 18.9795 16.1324 19.0034 16.0002 19.0003H5.00025Z" fill="white"/>
<path d="M18.4002 13.0003L21.3002 15.9003C21.3913 15.9921 21.4627 16.1016 21.51 16.2219C21.5573 16.3423 21.5795 16.471 21.5752 16.6003C21.5795 16.7295 21.5573 16.8583 21.51 16.9787C21.4627 17.099 21.3913 17.2085 21.3002 17.3003C21.2084 17.3914 21.099 17.4627 20.9786 17.51C20.8583 17.5573 20.7295 17.5795 20.6002 17.5753C20.471 17.5795 20.3422 17.5573 20.2219 17.51C20.1015 17.4627 19.9921 17.3914 19.9002 17.3003L16.3002 13.7003C16.2051 13.6103 16.1295 13.5017 16.0779 13.3813C16.0263 13.2609 15.9999 13.1313 16.0002 13.0003C16.0002 12.7336 16.1002 12.5003 16.3002 12.3003L19.9002 8.7003C19.9921 8.60923 20.1015 8.53786 20.2219 8.49058C20.3422 8.44329 20.471 8.42108 20.6002 8.4253C20.8836 8.4253 21.1169 8.51696 21.3002 8.7003C21.3913 8.79211 21.4627 8.90156 21.51 9.02192C21.5573 9.14229 21.5795 9.27104 21.5752 9.40029C21.5795 9.52955 21.5573 9.6583 21.51 9.77867C21.4627 9.89903 21.3913 10.0085 21.3002 10.1003L18.4002 13.0003Z" fill="#E63946"/>
<path d="M5.00027 9.0003C4.86831 9.00342 4.7371 8.97958 4.61467 8.93023C4.49225 8.88088 4.38118 8.80706 4.28827 8.7133C4.1942 8.62036 4.12013 8.50917 4.0706 8.38655C4.02107 8.26394 3.99714 8.1325 4.00027 8.0003C4.00027 7.71696 4.09627 7.4793 4.28827 7.2873C4.38118 7.19353 4.49225 7.11971 4.61467 7.07036C4.7371 7.02101 4.86831 6.99717 5.00027 7.0003H16.0003C16.1324 6.99703 16.2638 7.02081 16.3864 7.07016C16.509 7.11952 16.6202 7.19341 16.7133 7.2873C16.8072 7.38032 16.8811 7.49155 16.9304 7.61416C16.9798 7.73677 17.0035 7.86817 17.0003 8.0003C17.0035 8.13242 16.9798 8.26383 16.9304 8.38643C16.8811 8.50904 16.8072 8.62027 16.7133 8.7133C16.6202 8.80719 16.509 8.88107 16.3864 8.93043C16.2638 8.97978 16.1324 9.00356 16.0003 9.0003H5.00027Z" fill="white"/>
<path d="M5.00025 14.0003C4.86822 14.0033 4.73696 13.9793 4.61453 13.9298C4.4921 13.8802 4.38107 13.8062 4.28825 13.7123C4.1943 13.6195 4.1203 13.5084 4.07078 13.386C4.02126 13.2636 3.99726 13.1323 4.00025 13.0003C4.00025 12.717 4.09625 12.4793 4.28825 12.2873C4.38116 12.1935 4.49222 12.1197 4.61465 12.0704C4.73708 12.021 4.86829 11.9972 5.00025 12.0003H13.0002C13.1324 11.997 13.2638 12.0208 13.3864 12.0702C13.509 12.1195 13.6202 12.1934 13.7132 12.2873C13.8071 12.3803 13.881 12.4915 13.9304 12.6142C13.9797 12.7368 14.0035 12.8682 14.0002 13.0003C14.0002 13.283 13.9046 13.5203 13.7132 13.7123C13.6203 13.8064 13.5091 13.8804 13.3865 13.93C13.2639 13.9795 13.1324 14.0034 13.0002 14.0003H5.00025Z" fill="#E63946"/>
</svg>
