<svg xmlns="http://www.w3.org/2000/svg" width="17" height="17" fill="none" xmlns:v="https://vecta.io/nano"><path fill-rule="evenodd" d="M4.733.584C5.663.198 6.66 0 7.667 0s2.004.198 2.934.584 1.775.95 2.487 1.662 1.277 1.557 1.662 2.487.584 1.927.584 2.934-.198 2.004-.584 2.934c-.257.621-.594 1.203-1.001 1.734l2.958 2.958a1 1 0 0 1-1.414 1.414l-2.958-2.958c-1.332 1.022-2.971 1.585-4.668 1.585-2.033 0-3.983-.808-5.421-2.246S0 9.7 0 7.667.808 3.683 2.246 2.246C2.957 1.534 3.803.969 4.733.584zM7.667 2c-.744 0-1.481.147-2.169.431S4.186 3.134 3.66 3.66C2.597 4.722 2 6.164 2 7.667s.597 2.944 1.66 4.007 2.504 1.66 4.007 1.66 2.944-.597 4.007-1.66c.526-.526.944-1.151 1.228-1.838a5.67 5.67 0 0 0 0-4.337c-.285-.688-.702-1.312-1.228-1.838s-1.151-.944-1.838-1.228S8.411 2 7.667 2z" fill="#E63946"/></svg>