<svg xmlns="http://www.w3.org/2000/svg" width="56" height="56" fill="none" xmlns:v="https://vecta.io/nano"><path d="M14.223 25.041l20.68-20.816a4.15 4.15 0 0 1 1.347-.906A4.13 4.13 0 0 1 37.84 3a4.14 4.14 0 0 1 2.937 1.224c.386.388.691.849.9 1.356s.316 1.051.316 1.6c0 1.109-.437 2.172-1.216 2.956l-17.785 17.86 17.785 17.86c.388.387.695.848.905 1.355S42 48.263 42 48.813s-.108 1.094-.318 1.601-.518.968-.905 1.355-.842.7-1.346.911a4.11 4.11 0 0 1-3.181 0c-.504-.211-.962-.521-1.346-.911l-20.68-20.816c-.388-.387-.695-.847-.905-1.355S13 28.546 13 27.996s.108-1.094.318-1.601.518-.968.905-1.355z" fill="#E63946"/></svg>